<?xml version="1.0" encoding="UTF-8"?>
<svg width="40px" height="40px" viewBox="0 0 40 40" version="1.1" xmlns="http://www.w3.org/2000/svg" xmlns:xlink="http://www.w3.org/1999/xlink">
    <!-- Generator: Sketch 51.2 (57519) - http://www.bohemiancoding.com/sketch -->
    <title>Artboard</title>
    <desc>Created with Sketch.</desc>
    <defs></defs>
    <g id="Artboard" stroke="none" stroke-width="1" fill="none" fill-rule="evenodd">
        <g id="jordan-2-logo-svg-vector" transform="translate(3.669358, 2.926479)" fill="#DCDCDC" fill-rule="nonzero">
            <path d="M17.7924848,2.96820982 C17.7804349,2.90338882 17.7722072,2.83791533 17.7678442,2.77212836 C17.7037006,1.84869423 18.398851,1.04794138 19.3221548,0.982885105 C20.2465015,0.918480691 21.0469936,1.61454377 21.1115284,2.5379779 C21.1760632,3.46141203 20.480652,4.26216488 19.5573482,4.32722116 C19.498941,4.33165385 19.4410553,4.33243609 19.3844732,4.33021975 C19.3470561,4.33986737 19.3246319,4.34443044 19.2924297,4.37285182 C19.1973875,4.5209559 19.5341418,4.49331675 19.3052063,5.14062022 C19.3052063,5.14062022 19.3036418,5.21167367 19.278219,5.28272712 C19.2602275,5.53121865 19.1646638,6.26756708 19.1509746,6.65972999 C19.1996039,6.71657275 19.2132931,6.74421189 19.2079478,6.88201647 C19.1863058,7.06831993 19.1435434,7.52488725 19.0748366,7.81744495 C19.0165598,8.06815282 18.9142167,8.11599982 18.8316904,8.17740565 C18.7156582,8.6968129 18.6850204,9.12704481 18.3873782,9.75792124 C18.3603909,10.2361305 18.3267546,10.3663735 18.2264975,10.5998721 C18.2152854,11.3040183 18.2639147,11.4088384 17.7888343,12.5237909 C17.6661531,13.0452842 17.7828372,13.4060271 17.9122979,13.9478586 C18.0447571,14.504683 18.4121491,14.7373993 18.4667755,15.3076522 C18.595454,16.6506276 18.5632518,17.5649356 18.2751268,18.6179608 L18.5266169,19.213506 C18.8387306,19.3566559 19.613148,19.7480366 19.1836983,20.3675705 C19.7885001,20.6854207 20.7020259,21.0229572 21.4555836,21.6675228 C21.7587015,21.9199255 22.0788984,22.1951436 22.3662411,22.5182086 C22.9132875,22.6034728 22.8548803,22.6468871 23.2603413,22.8960305 C24.4526052,23.6270336 26.3645297,25.0771759 27.4728332,26.1038657 C27.6636997,26.2153348 27.7415326,26.2956448 27.8956338,26.3764762 C27.9197529,26.4226284 27.9262715,26.433319 27.9209262,26.4458348 C27.8679947,26.5798586 27.8699503,26.5837698 27.8221033,26.6905455 C27.8819446,26.7566448 27.9934138,26.8184417 28.0600345,26.8763275 C28.122353,26.8957531 28.122353,26.8658976 28.2292591,26.8396926 C28.3683674,26.9699355 28.5407209,27.074886 28.6025179,27.0687585 C28.791168,27.0209115 28.7589658,27.0598931 28.9184124,26.8815424 C28.9757766,26.8224833 29.0718618,26.8823247 29.0718618,26.8823247 C29.1317031,26.8120535 29.2603816,26.6720325 29.4319528,26.5708628 C29.5688448,26.4901618 29.8301129,26.481166 29.8301129,26.481166 C29.9175934,26.4819482 29.9011664,26.5716451 29.8936047,26.6008487 C29.7947818,26.6518247 29.5854022,26.7078852 29.4678055,26.7945834 C29.2117523,27.0593716 29.0112382,27.4165945 29.0112382,27.4165945 C29.5267342,27.3461929 29.843411,27.4740891 30.272991,27.424808 C30.5072719,27.4112492 30.6801469,27.4263725 30.9261613,27.2482825 C30.9261613,27.2482825 31.1626585,27.0799706 31.3745151,26.9906649 C31.5802442,26.9009681 31.7755434,26.9488151 31.9566319,27.0803617 C32.0845281,27.224685 32.1615788,27.2254672 31.9670618,27.4292407 C31.8967906,27.5083773 31.794969,27.5967704 31.6656387,27.724797 C31.4381373,27.9495606 31.1318904,28.2491584 30.8148225,28.4971284 C30.4937131,28.7478363 30.1293197,28.972991 29.9018182,29.0762467 C29.3279149,29.4886174 29.4633728,29.3807987 29.0121508,29.789519 C28.9551777,29.840495 28.804075,29.9316259 28.7308052,29.9802552 C28.5528456,30.0970697 28.4973066,29.9996808 28.3812744,29.7857382 C28.3812744,29.7857382 28.3282124,29.7058194 28.2406016,29.5350303 C28.1449076,29.3487269 28.0730719,29.1356969 28.1021451,29.139217 C27.995239,29.1256582 27.5139008,28.5614025 27.5127274,28.4404161 C27.4109058,28.4170792 26.9767627,27.9967557 26.9612483,27.9164457 L26.5766471,27.6081129 C26.1366372,27.6995046 26.0357282,27.4262421 24.8735806,26.6016309 C24.7409909,26.5992842 24.5361744,26.5277093 24.2425738,26.3099859 C23.7182123,25.8899231 22.4601099,24.939632 22.2468192,24.8310311 C22.0177533,24.714347 21.7440997,24.6044423 21.5761789,24.4658554 C21.3246888,24.4195729 21.1871449,24.3932375 21.0613347,24.3581671 C20.9327866,24.3229663 20.8158418,24.277466 20.49043,24.2339213 C19.9607233,24.1680828 19.4113301,23.9487949 18.8882724,23.6870053 C18.6406935,23.5696693 18.4250561,23.509828 18.2118957,23.4181755 C17.7336864,23.2162273 17.3236624,23.0343565 17.0059426,22.9609564 C16.8846955,22.948962 16.3084454,22.776087 16.0062401,22.5996919 C15.90142,22.5457174 15.8407964,22.4940895 15.7719593,22.4783144 C15.613295,22.4418099 15.5114734,22.5045194 15.4397681,22.5286385 C15.0521683,22.7305867 14.689209,22.9050262 14.3538888,23.0854629 C14.0417751,23.2523407 13.7544324,23.4257372 13.4498803,23.6010893 C13.1751838,23.7597536 12.8578551,23.9092918 12.5316611,24.0650879 C12.5316611,24.0650879 11.6014476,24.5313028 11.0933828,24.7125217 C10.6525907,25.0723521 9.75158074,25.6948846 9.20166614,26.0032175 C8.9293163,26.1326782 8.40026142,26.4678679 8.15620259,26.5428326 C8.0169639,26.6549536 7.52089347,27.0089172 7.13251139,27.300823 C6.83239204,27.5253258 6.60567286,27.7146279 6.60567286,27.7146279 C6.43136375,27.8709455 6.44322772,27.9451279 6.11181877,27.8043247 C6.01977522,27.8799412 5.94872177,27.927006 5.88953229,27.9704203 C5.6501669,28.1440775 5.62982866,28.1022277 5.54234817,28.0976646 C5.37547034,28.2421183 5.35448024,28.1674144 5.20859251,28.3336403 C5.11276813,28.4820051 5.21080885,28.4465436 5.00873023,28.5185097 C4.96609816,28.5349367 4.94589029,28.5864342 4.91303622,28.6149859 C4.75059108,28.7487489 4.74993921,29.1268315 4.36077489,29.1538188 C4.13548982,29.3145691 4.19311482,29.5086949 4.02102206,29.5002207 C4.0315823,29.6669681 3.71647001,29.9103751 3.65962725,29.9095928 C3.16342645,30.080773 3.1290079,29.7159885 2.53333226,29.9882079 C2.45628163,30.0235391 2.34324798,30.120928 2.19436166,30.1490886 C1.93244169,30.1985001 1.6158953,30.1467419 1.42281243,29.9972037 C1.11891226,29.7629229 0.839131141,29.3109186 0.839131141,29.3109186 C0.742524521,29.082635 0.798715416,28.9383117 1.10026887,28.7225439 C1.22594874,28.6426251 1.24915519,28.5827837 1.46022957,28.5683123 C1.56504971,28.5286788 1.53649796,28.5893024 1.72371403,28.5221601 C1.83218462,28.4831785 1.83218462,28.510948 2.05069028,28.4923046 C2.10075363,28.4585379 2.17115521,28.4465436 2.26541511,28.4159059 C2.43829012,28.3589327 2.60673243,28.2954409 2.60673243,28.2954409 C2.60673243,28.2954409 2.65079861,28.2512444 2.81702457,28.2670196 C2.95769737,28.2093946 3.10215099,28.1238697 3.17620303,28.0976646 C3.15742928,27.8748567 3.18141796,27.8852865 3.28467362,27.7955897 C3.41335208,27.684642 3.43655853,27.7027639 3.53238291,27.7714706 C3.57279863,27.7481338 3.59222425,27.740181 3.58779156,27.706284 C3.57201639,27.5902517 3.47254156,27.5356253 3.50252742,27.2798329 C3.45833087,27.1773595 3.39327459,27.0508974 3.40748528,26.9744986 C3.42847538,26.8921027 3.44868324,26.8523388 3.49874659,26.8261338 C3.5519389,26.7978428 3.56914818,26.8360421 3.59756956,26.8679836 C3.64841515,26.9271731 3.68961311,27.1023948 3.68961311,27.1023948 C3.70760463,27.3000407 3.76888008,27.5559635 3.9641793,27.4115099 C4.0794293,27.2946954 4.10185351,26.9834944 4.33678621,27.0501151 L4.50444628,27.1958725 C4.64668356,27.0621095 4.65346297,27.0621095 4.73872711,27.0082653 C4.73872711,27.0082653 4.60548559,26.8735897 4.72230007,26.7687695 C4.80234928,26.6975857 4.89882553,26.6466097 5.07026643,26.4566558 C5.54091406,25.9365967 5.78262618,25.7067486 6.29160356,25.2875984 C7.30708125,24.452427 8.46244949,23.8666597 9.19658158,23.5754058 C9.43594697,23.2715056 9.66879369,23.0695573 10.2000649,23.0185814 C10.8315932,21.9521277 12.040936,20.9997507 12.3186311,20.8478658 C12.5445681,20.4383633 12.6426088,20.4819079 12.9381651,20.3996424 C13.1723156,20.2119048 13.2255079,20.2119048 13.330328,20.0158234 C13.4321496,19.6111446 13.0953953,18.529698 13.9550769,18.4750716 C14.1377299,18.2170629 14.0920992,18.2789902 14.295612,18.0350617 C14.1579378,17.6953089 14.101095,17.4110951 14.0636779,17.166254 C14.0568984,17.1378326 13.7224909,16.9021177 13.8174027,16.5944367 C13.6752958,16.4253425 13.409595,16.0307025 13.3265472,15.8458332 C13.2884782,15.8466154 13.2569278,15.8322743 13.215078,15.8265379 C13.1716637,15.8196281 13.1176891,15.8221052 13.0571959,15.8168903 C12.9233025,16.1623795 12.7774148,16.1880631 12.5393532,16.2643315 C12.1143362,17.1701652 11.9646676,17.5535931 10.7621042,18.3024574 C10.2846772,18.8369879 10.1320101,19.4325332 10.1342264,19.4236678 C10.0519608,19.6001933 10.0810341,19.8472507 10.1244484,19.97971 C10.0616085,20.1757914 10.0780355,20.195217 10.0780355,20.195217 C10.1042405,20.2692691 10.1724258,20.3673098 10.2561254,20.3881695 C10.4005791,20.4263689 10.5450327,20.4202414 10.5366888,20.581122 C10.5172632,20.7824184 10.2531269,20.749434 10.1280989,20.7270098 C9.64689098,20.650611 9.79890625,20.3370632 9.49122525,20.441753 C9.25551031,20.5959846 9.16724758,21.0509874 8.78251596,20.9919283 C8.73167037,20.958292 8.74731516,20.8588172 8.78173372,20.7869815 C8.83570827,20.6747301 8.93140227,20.5819043 8.87455951,20.5397937 C8.62369044,20.6201068 8.37323994,20.7017216 8.12321815,20.7846348 C7.88750321,20.8489088 7.62923369,20.7314424 7.86129817,20.5764286 C7.9691169,20.5345788 8.12321815,20.4820383 8.31330243,20.3602696 C8.31330243,20.3602696 8.41121278,20.2270281 8.22347522,20.2936489 C8.01839801,20.3669187 7.71606231,20.4125493 7.49912113,20.388691 C7.49912113,20.388691 7.04933322,20.3296319 6.99170822,20.2943007 C6.93330098,20.2589696 6.88023904,20.1199916 7.02091184,20.1207739 C7.19900178,20.1223384 7.64500886,20.0697979 7.99075887,19.9777544 C8.1576367,19.9126981 8.47496533,19.7249605 8.65305526,19.6365674 C8.65305526,19.6365674 8.84613813,19.3552218 8.95239237,19.2998132 C9.12970007,19.0956486 9.27936863,18.9750533 9.43646846,18.7661952 C9.58991784,18.4495185 9.74858216,17.9483635 10.2566469,17.1722512 C10.4915796,16.8145068 10.7834855,16.3978337 11.1508774,16.0252268 C11.1508774,16.0252268 11.2459196,15.4288993 11.7241289,15.0045342 C11.8297312,14.7560427 11.9898297,14.463485 12.1477117,14.1925693 C12.2091176,14.0885314 12.2673944,13.9980523 12.3258017,13.8992293 C12.4740361,13.666513 12.6297019,13.2332825 13.207386,13.1650972 C13.207386,13.1650972 13.454313,12.9825746 13.5493552,12.8528532 C13.6975896,12.7263911 13.6638229,12.5296577 13.7842879,12.3910709 C13.6002007,12.2115469 13.1295531,11.8740104 13.0837921,11.4047968 C13.0351628,10.9071619 13.2124705,10.4977898 13.5133721,10.1948022 C13.8471278,9.86104653 14.198875,9.69416869 14.6261083,9.71959149 C15.1595959,9.79885846 15.2606352,9.97551429 15.4305116,10.1506056 C15.5936086,10.3167012 15.6542322,10.2097951 15.7230693,10.4043121 C16.1706409,10.5233429 16.1458699,10.4709329 16.1420891,10.8002558 C16.2109262,10.8929512 16.3261762,10.979128 16.3246117,11.1714286 C16.4750625,10.8593149 16.504918,10.8018203 16.9068589,10.4582866 C17.0019011,10.1791574 17.0664358,9.90459121 17.1498748,9.62546196 C17.2282291,9.36732282 17.325618,9.10162202 17.4011041,8.90175974 C17.3210549,8.33750407 17.4854557,8.24402641 17.7048739,7.74939008 C17.6660227,7.68133522 17.6743666,7.66190959 17.6907936,7.55031004 C17.7760578,7.22333379 17.9092993,6.79075516 17.9885662,6.50862733 C17.9885662,6.50862733 18.0147713,6.39637591 18.1308035,6.38816239 C18.231191,6.03120028 18.3816418,5.36668753 18.4069342,5.23122967 C18.5101898,4.85784052 18.4435691,4.73802745 18.3643021,4.52773531 C18.3388793,4.4588982 18.3507433,4.36085747 18.3068075,4.28445872 C18.1817795,4.0667353 18.0472342,3.78382522 17.9559729,3.5817466 C17.8967834,3.45306814 17.8031754,2.96807944 17.8031754,2.96807944 C17.7228654,2.72050053 17.7924848,2.96820982 17.7924848,2.96820982" id="Shape"></path>
        </g>
    </g>
</svg>